# xmcd
#
# Track frame offsets: 
#        150
#        13917
#        28232
#        45895
#        61817
#        79017
#        91830
#        106577
#        122215
#        133350
#
# Disc length: 1952 seconds
#
# Revision: 1
# Processed by: cddbd v1.5.2PL0 Copyright (c) Steve Scherf et al.
# Submitted via: ExactAudioCopy v0.95a4
#
DISCID=79079e0a
DTITLE=Railbenders - Southbound
DYEAR=2001
DGENRE=Country
TTITLE0=Southbound
TTITLE1=Whiskey Saturday Night
TTITLE2=Lonesome Train
TTITLE3=Minus One
TTITLE4=There Was a Time
TTITLE5=Texas Sun
TTITLE6=Crazy Train
TTITLE7=Whiskey Drinkin' Man
TTITLE8=Breakneck Speed
TTITLE9=Dead Man's Walk
EXTD=YEAR: 2001 ID3G: 2
EXTT0=
EXTT1=
EXTT2=
EXTT3=
EXTT4=
EXTT5=
EXTT6=
EXTT7=
EXTT8=
EXTT9=
PLAYORDER=
